<svg aria-roledescription="er" viewBox="0 0 475.9609375 1096" style="max-width: 475.9609375px;" xmlns="http://www.w3.org/2000/svg" width="undefined" id="mermaid-svg" height="undefined"><style>#mermaid-svg{font-family:"trebuchet ms",verdana,arial,sans-serif;font-size:16px;fill:#333;}#mermaid-svg .error-icon{fill:#552222;}#mermaid-svg .error-text{fill:#552222;stroke:#552222;}#mermaid-svg .edge-thickness-normal{stroke-width:2px;}#mermaid-svg .edge-thickness-thick{stroke-width:3.5px;}#mermaid-svg .edge-pattern-solid{stroke-dasharray:0;}#mermaid-svg .edge-pattern-dashed{stroke-dasharray:3;}#mermaid-svg .edge-pattern-dotted{stroke-dasharray:2;}#mermaid-svg .marker{fill:#333333;stroke:#333333;}#mermaid-svg .marker.cross{stroke:#333333;}#mermaid-svg svg{font-family:"trebuchet ms",verdana,arial,sans-serif;font-size:16px;}#mermaid-svg .entityBox{fill:#ECECFF;stroke:#9370DB;}#mermaid-svg .attributeBoxOdd{fill:#ffffff;stroke:#9370DB;}#mermaid-svg .attributeBoxEven{fill:#f2f2f2;stroke:#9370DB;}#mermaid-svg .relationshipLabelBox{fill:hsl(80, 100%, 96.2745098039%);opacity:0.7;background-color:hsl(80, 100%, 96.2745098039%);}#mermaid-svg .relationshipLabelBox rect{opacity:0.5;}#mermaid-svg .relationshipLine{stroke:#333333;}#mermaid-svg .entityTitleText{text-anchor:middle;font-size:18px;fill:#333;}#mermaid-svg :root{--mermaid-font-family:"trebuchet ms",verdana,arial,sans-serif;}</style><g></g><defs><marker orient="auto" markerHeight="18" markerWidth="18" refY="9" refX="0" id="ONLY_ONE_START"><path d="M9,0 L9,18 M15,0 L15,18" fill="none" stroke="gray"></path></marker></defs><defs><marker orient="auto" markerHeight="18" markerWidth="18" refY="9" refX="18" id="ONLY_ONE_END"><path d="M3,0 L3,18 M9,0 L9,18" fill="none" stroke="gray"></path></marker></defs><defs><marker orient="auto" markerHeight="18" markerWidth="30" refY="9" refX="0" id="ZERO_OR_ONE_START"><circle r="6" cy="9" cx="21" fill="white" stroke="gray"></circle><path d="M9,0 L9,18" fill="none" stroke="gray"></path></marker></defs><defs><marker orient="auto" markerHeight="18" markerWidth="30" refY="9" refX="30" id="ZERO_OR_ONE_END"><circle r="6" cy="9" cx="9" fill="white" stroke="gray"></circle><path d="M21,0 L21,18" fill="none" stroke="gray"></path></marker></defs><defs><marker orient="auto" markerHeight="36" markerWidth="45" refY="18" refX="18" id="ONE_OR_MORE_START"><path d="M0,18 Q 18,0 36,18 Q 18,36 0,18 M42,9 L42,27" fill="none" stroke="gray"></path></marker></defs><defs><marker orient="auto" markerHeight="36" markerWidth="45" refY="18" refX="27" id="ONE_OR_MORE_END"><path d="M3,9 L3,27 M9,18 Q27,0 45,18 Q27,36 9,18" fill="none" stroke="gray"></path></marker></defs><defs><marker orient="auto" markerHeight="36" markerWidth="57" refY="18" refX="18" id="ZERO_OR_MORE_START"><circle r="6" cy="18" cx="48" fill="white" stroke="gray"></circle><path d="M0,18 Q18,0 36,18 Q18,36 0,18" fill="none" stroke="gray"></path></marker></defs><defs><marker orient="auto" markerHeight="36" markerWidth="57" refY="18" refX="39" id="ZERO_OR_MORE_END"><circle r="6" cy="18" cx="9" fill="white" stroke="gray"></circle><path d="M21,18 Q39,0 57,18 Q39,36 21,18" fill="none" stroke="gray"></path></marker></defs><path style="stroke: gray; fill: none;" marker-start="url(#ZERO_OR_MORE_START)" marker-end="url(#ONLY_ONE_END)" d="M238.814453125,666L238.814453125,674.3333333333334C238.814453125,682.6666666666666,238.814453125,699.3333333333334,238.814453125,716C238.814453125,732.6666666666666,238.814453125,749.3333333333334,238.814453125,757.6666666666666L238.814453125,766" class="er relationshipLine"></path><path style="stroke: gray; fill: none;" marker-start="url(#ZERO_OR_MORE_START)" marker-end="url(#ONLY_ONE_END)" d="M77.32421875,432L77.32421875,440.3333333333333C77.32421875,448.6666666666667,77.32421875,465.3333333333333,94.96321614583333,486.4461557998621C112.60221354166667,507.55897826639085,147.88020833333334,533.1179565327818,165.51920572916666,545.8974456659772L183.158203125,558.6769347991727" class="er relationshipLine"></path><path style="stroke: gray; fill: none;" marker-start="url(#ZERO_OR_ONE_START)" marker-end="url(#ZERO_OR_ONE_END)" d="M134.6484375,302.93020401902135L146.31510416666666,294.77517001585113C157.98177083333334,286.6201360126809,181.31510416666666,270.3100680063405,195.8984375,262.1550340031702C210.48177083333334,254,216.31510416666666,254,222.1484375,268.8333333333333C227.98177083333334,283.6666666666667,233.81510416666666,313.3333333333333,233.81510416666666,343C233.81510416666666,372.6666666666667,227.98177083333334,402.3333333333333,222.1484375,417.1666666666667C216.31510416666666,432,210.48177083333334,432,195.8984375,423.8449659968298C181.31510416666666,415.6899319936595,157.98177083333334,399.3798639873191,146.31510416666666,391.2248299841489L134.6484375,383.06979598097865" class="er relationshipLine"></path><path style="stroke: gray; fill: none;" marker-start="url(#ZERO_OR_MORE_START)" marker-end="url(#ONLY_ONE_END)" d="M400.3046875,410L400.3046875,422C400.3046875,434,400.3046875,458,382.6656901041667,482.77948913319545C365.0266927083333,507.55897826639085,329.7486979166667,533.1179565327818,312.1097005208333,545.8974456659772L294.470703125,558.6769347991727" class="er relationshipLine"></path><path style="stroke: gray; fill: none;" marker-start="url(#ZERO_OR_MORE_START)" marker-end="url(#ONLY_ONE_END)" d="M400.3046875,154L400.3046875,162.33333333333334C400.3046875,170.66666666666666,400.3046875,187.33333333333334,400.3046875,207.66666666666666C400.3046875,228,400.3046875,252,400.3046875,264L400.3046875,276" class="er relationshipLine"></path><g transform="translate(176.517578125,766 )" id="entity-User-49af68b5-9b84-41e9-91cd-b12f3d8568ff"><rect height="310" width="124.59375" y="0" x="0" class="er entityBox"></rect><text style="dominant-baseline: middle; text-anchor: middle; font-size: 12px;" transform="translate(62.296875,12)" y="0" x="0" id="text-entity-User-49af68b5-9b84-41e9-91cd-b12f3d8568ff" class="er entityLabel">User</text><rect height="22" width="53.6640625" y="24" x="0" class="er attributeBoxOdd"></rect><text style="dominant-baseline: middle; font-size: 10.2px;" transform="translate(5,35)" y="0" x="0" id="text-entity-User-49af68b5-9b84-41e9-91cd-b12f3d8568ff-attr-1-type" class="er entityLabel">String</text><rect height="22" width="70.9296875" y="24" x="53.6640625" class="er attributeBoxOdd"></rect><text style="dominant-baseline: middle; font-size: 10.2px;" transform="translate(58.6640625,35)" y="0" x="0" id="text-entity-User-49af68b5-9b84-41e9-91cd-b12f3d8568ff-attr-1-name" class="er entityLabel">id</text><rect height="22" width="53.6640625" y="46" x="0" class="er attributeBoxEven"></rect><text style="dominant-baseline: middle; font-size: 10.2px;" transform="translate(5,57)" y="0" x="0" id="text-entity-User-49af68b5-9b84-41e9-91cd-b12f3d8568ff-attr-2-type" class="er entityLabel">String</text><rect height="22" width="70.9296875" y="46" x="53.6640625" class="er attributeBoxEven"></rect><text style="dominant-baseline: middle; font-size: 10.2px;" transform="translate(58.6640625,57)" y="0" x="0" id="text-entity-User-49af68b5-9b84-41e9-91cd-b12f3d8568ff-attr-2-name" class="er entityLabel">email</text><rect height="22" width="53.6640625" y="68" x="0" class="er attributeBoxOdd"></rect><text style="dominant-baseline: middle; font-size: 10.2px;" transform="translate(5,79)" y="0" x="0" id="text-entity-User-49af68b5-9b84-41e9-91cd-b12f3d8568ff-attr-3-type" class="er entityLabel">String</text><rect height="22" width="70.9296875" y="68" x="53.6640625" class="er attributeBoxOdd"></rect><text style="dominant-baseline: middle; font-size: 10.2px;" transform="translate(58.6640625,79)" y="0" x="0" id="text-entity-User-49af68b5-9b84-41e9-91cd-b12f3d8568ff-attr-3-name" class="er entityLabel">firstName</text><rect height="22" width="53.6640625" y="90" x="0" class="er attributeBoxEven"></rect><text style="dominant-baseline: middle; font-size: 10.2px;" transform="translate(5,101)" y="0" x="0" id="text-entity-User-49af68b5-9b84-41e9-91cd-b12f3d8568ff-attr-4-type" class="er entityLabel">String</text><rect height="22" width="70.9296875" y="90" x="53.6640625" class="er attributeBoxEven"></rect><text style="dominant-baseline: middle; font-size: 10.2px;" transform="translate(58.6640625,101)" y="0" x="0" id="text-entity-User-49af68b5-9b84-41e9-91cd-b12f3d8568ff-attr-4-name" class="er entityLabel">lastName</text><rect height="22" width="53.6640625" y="112" x="0" class="er attributeBoxOdd"></rect><text style="dominant-baseline: middle; font-size: 10.2px;" transform="translate(5,123)" y="0" x="0" id="text-entity-User-49af68b5-9b84-41e9-91cd-b12f3d8568ff-attr-5-type" class="er entityLabel">String</text><rect height="22" width="70.9296875" y="112" x="53.6640625" class="er attributeBoxOdd"></rect><text style="dominant-baseline: middle; font-size: 10.2px;" transform="translate(58.6640625,123)" y="0" x="0" id="text-entity-User-49af68b5-9b84-41e9-91cd-b12f3d8568ff-attr-5-name" class="er entityLabel">hash</text><rect height="22" width="53.6640625" y="134" x="0" class="er attributeBoxEven"></rect><text style="dominant-baseline: middle; font-size: 10.2px;" transform="translate(5,145)" y="0" x="0" id="text-entity-User-49af68b5-9b84-41e9-91cd-b12f3d8568ff-attr-6-type" class="er entityLabel">Boolean</text><rect height="22" width="70.9296875" y="134" x="53.6640625" class="er attributeBoxEven"></rect><text style="dominant-baseline: middle; font-size: 10.2px;" transform="translate(58.6640625,145)" y="0" x="0" id="text-entity-User-49af68b5-9b84-41e9-91cd-b12f3d8568ff-attr-6-name" class="er entityLabel">verified</text><rect height="22" width="53.6640625" y="156" x="0" class="er attributeBoxOdd"></rect><text style="dominant-baseline: middle; font-size: 10.2px;" transform="translate(5,167)" y="0" x="0" id="text-entity-User-49af68b5-9b84-41e9-91cd-b12f3d8568ff-attr-7-type" class="er entityLabel">Boolean</text><rect height="22" width="70.9296875" y="156" x="53.6640625" class="er attributeBoxOdd"></rect><text style="dominant-baseline: middle; font-size: 10.2px;" transform="translate(58.6640625,167)" y="0" x="0" id="text-entity-User-49af68b5-9b84-41e9-91cd-b12f3d8568ff-attr-7-name" class="er entityLabel">locked</text><rect height="22" width="53.6640625" y="178" x="0" class="er attributeBoxEven"></rect><text style="dominant-baseline: middle; font-size: 10.2px;" transform="translate(5,189)" y="0" x="0" id="text-entity-User-49af68b5-9b84-41e9-91cd-b12f3d8568ff-attr-8-type" class="er entityLabel">Int</text><rect height="22" width="70.9296875" y="178" x="53.6640625" class="er attributeBoxEven"></rect><text style="dominant-baseline: middle; font-size: 10.2px;" transform="translate(58.6640625,189)" y="0" x="0" id="text-entity-User-49af68b5-9b84-41e9-91cd-b12f3d8568ff-attr-8-name" class="er entityLabel">attempts</text><rect height="22" width="53.6640625" y="200" x="0" class="er attributeBoxOdd"></rect><text style="dominant-baseline: middle; font-size: 10.2px;" transform="translate(5,211)" y="0" x="0" id="text-entity-User-49af68b5-9b84-41e9-91cd-b12f3d8568ff-attr-9-type" class="er entityLabel">String</text><rect height="22" width="70.9296875" y="200" x="53.6640625" class="er attributeBoxOdd"></rect><text style="dominant-baseline: middle; font-size: 10.2px;" transform="translate(58.6640625,211)" y="0" x="0" id="text-entity-User-49af68b5-9b84-41e9-91cd-b12f3d8568ff-attr-9-name" class="er entityLabel">requestToken</text><rect height="22" width="53.6640625" y="222" x="0" class="er attributeBoxEven"></rect><text style="dominant-baseline: middle; font-size: 10.2px;" transform="translate(5,233)" y="0" x="0" id="text-entity-User-49af68b5-9b84-41e9-91cd-b12f3d8568ff-attr-10-type" class="er entityLabel">Role</text><rect height="22" width="70.9296875" y="222" x="53.6640625" class="er attributeBoxEven"></rect><text style="dominant-baseline: middle; font-size: 10.2px;" transform="translate(58.6640625,233)" y="0" x="0" id="text-entity-User-49af68b5-9b84-41e9-91cd-b12f3d8568ff-attr-10-name" class="er entityLabel">roles</text><rect height="22" width="53.6640625" y="244" x="0" class="er attributeBoxOdd"></rect><text style="dominant-baseline: middle; font-size: 10.2px;" transform="translate(5,255)" y="0" x="0" id="text-entity-User-49af68b5-9b84-41e9-91cd-b12f3d8568ff-attr-11-type" class="er entityLabel">DateTime</text><rect height="22" width="70.9296875" y="244" x="53.6640625" class="er attributeBoxOdd"></rect><text style="dominant-baseline: middle; font-size: 10.2px;" transform="translate(58.6640625,255)" y="0" x="0" id="text-entity-User-49af68b5-9b84-41e9-91cd-b12f3d8568ff-attr-11-name" class="er entityLabel">updatedAt</text><rect height="22" width="53.6640625" y="266" x="0" class="er attributeBoxEven"></rect><text style="dominant-baseline: middle; font-size: 10.2px;" transform="translate(5,277)" y="0" x="0" id="text-entity-User-49af68b5-9b84-41e9-91cd-b12f3d8568ff-attr-12-type" class="er entityLabel">DateTime</text><rect height="22" width="70.9296875" y="266" x="53.6640625" class="er attributeBoxEven"></rect><text style="dominant-baseline: middle; font-size: 10.2px;" transform="translate(58.6640625,277)" y="0" x="0" id="text-entity-User-49af68b5-9b84-41e9-91cd-b12f3d8568ff-attr-12-name" class="er entityLabel">createdAt</text><rect height="22" width="53.6640625" y="288" x="0" class="er attributeBoxOdd"></rect><text style="dominant-baseline: middle; font-size: 10.2px;" transform="translate(5,299)" y="0" x="0" id="text-entity-User-49af68b5-9b84-41e9-91cd-b12f3d8568ff-attr-13-type" class="er entityLabel">Boolean</text><rect height="22" width="70.9296875" y="288" x="53.6640625" class="er attributeBoxOdd"></rect><text style="dominant-baseline: middle; font-size: 10.2px;" transform="translate(58.6640625,299)" y="0" x="0" id="text-entity-User-49af68b5-9b84-41e9-91cd-b12f3d8568ff-attr-13-name" class="er entityLabel">active</text></g><g transform="translate(183.158203125,532 )" id="entity-Course-5c345efb-a66d-44cc-a987-22c99655396a"><rect height="134" width="111.3125" y="0" x="0" class="er entityBox"></rect><text style="dominant-baseline: middle; text-anchor: middle; font-size: 12px;" transform="translate(55.65625,12)" y="0" x="0" id="text-entity-Course-5c345efb-a66d-44cc-a987-22c99655396a" class="er entityLabel">Course</text><rect height="22" width="53.6640625" y="24" x="0" class="er attributeBoxOdd"></rect><text style="dominant-baseline: middle; font-size: 10.2px;" transform="translate(5,35)" y="0" x="0" id="text-entity-Course-5c345efb-a66d-44cc-a987-22c99655396a-attr-1-type" class="er entityLabel">String</text><rect height="22" width="57.6484375" y="24" x="53.6640625" class="er attributeBoxOdd"></rect><text style="dominant-baseline: middle; font-size: 10.2px;" transform="translate(58.6640625,35)" y="0" x="0" id="text-entity-Course-5c345efb-a66d-44cc-a987-22c99655396a-attr-1-name" class="er entityLabel">id</text><rect height="22" width="53.6640625" y="46" x="0" class="er attributeBoxEven"></rect><text style="dominant-baseline: middle; font-size: 10.2px;" transform="translate(5,57)" y="0" x="0" id="text-entity-Course-5c345efb-a66d-44cc-a987-22c99655396a-attr-2-type" class="er entityLabel">String</text><rect height="22" width="57.6484375" y="46" x="53.6640625" class="er attributeBoxEven"></rect><text style="dominant-baseline: middle; font-size: 10.2px;" transform="translate(58.6640625,57)" y="0" x="0" id="text-entity-Course-5c345efb-a66d-44cc-a987-22c99655396a-attr-2-name" class="er entityLabel">name</text><rect height="22" width="53.6640625" y="68" x="0" class="er attributeBoxOdd"></rect><text style="dominant-baseline: middle; font-size: 10.2px;" transform="translate(5,79)" y="0" x="0" id="text-entity-Course-5c345efb-a66d-44cc-a987-22c99655396a-attr-3-type" class="er entityLabel">DateTime</text><rect height="22" width="57.6484375" y="68" x="53.6640625" class="er attributeBoxOdd"></rect><text style="dominant-baseline: middle; font-size: 10.2px;" transform="translate(58.6640625,79)" y="0" x="0" id="text-entity-Course-5c345efb-a66d-44cc-a987-22c99655396a-attr-3-name" class="er entityLabel">updatedAt</text><rect height="22" width="53.6640625" y="90" x="0" class="er attributeBoxEven"></rect><text style="dominant-baseline: middle; font-size: 10.2px;" transform="translate(5,101)" y="0" x="0" id="text-entity-Course-5c345efb-a66d-44cc-a987-22c99655396a-attr-4-type" class="er entityLabel">DateTime</text><rect height="22" width="57.6484375" y="90" x="53.6640625" class="er attributeBoxEven"></rect><text style="dominant-baseline: middle; font-size: 10.2px;" transform="translate(58.6640625,101)" y="0" x="0" id="text-entity-Course-5c345efb-a66d-44cc-a987-22c99655396a-attr-4-name" class="er entityLabel">createdAt</text><rect height="22" width="53.6640625" y="112" x="0" class="er attributeBoxOdd"></rect><text style="dominant-baseline: middle; font-size: 10.2px;" transform="translate(5,123)" y="0" x="0" id="text-entity-Course-5c345efb-a66d-44cc-a987-22c99655396a-attr-5-type" class="er entityLabel">Boolean</text><rect height="22" width="57.6484375" y="112" x="53.6640625" class="er attributeBoxOdd"></rect><text style="dominant-baseline: middle; font-size: 10.2px;" transform="translate(58.6640625,123)" y="0" x="0" id="text-entity-Course-5c345efb-a66d-44cc-a987-22c99655396a-attr-5-name" class="er entityLabel">active</text></g><g transform="translate(20,254 )" id="entity-Objective-bd719995-3fe8-403e-aa5a-d05f357df533"><rect height="178" width="114.6484375" y="0" x="0" class="er entityBox"></rect><text style="dominant-baseline: middle; text-anchor: middle; font-size: 12px;" transform="translate(57.32421875,12)" y="0" x="0" id="text-entity-Objective-bd719995-3fe8-403e-aa5a-d05f357df533" class="er entityLabel">Objective</text><rect height="22" width="53.6640625" y="24" x="0" class="er attributeBoxOdd"></rect><text style="dominant-baseline: middle; font-size: 10.2px;" transform="translate(5,35)" y="0" x="0" id="text-entity-Objective-bd719995-3fe8-403e-aa5a-d05f357df533-attr-1-type" class="er entityLabel">String</text><rect height="22" width="60.984375" y="24" x="53.6640625" class="er attributeBoxOdd"></rect><text style="dominant-baseline: middle; font-size: 10.2px;" transform="translate(58.6640625,35)" y="0" x="0" id="text-entity-Objective-bd719995-3fe8-403e-aa5a-d05f357df533-attr-1-name" class="er entityLabel">id</text><rect height="22" width="53.6640625" y="46" x="0" class="er attributeBoxEven"></rect><text style="dominant-baseline: middle; font-size: 10.2px;" transform="translate(5,57)" y="0" x="0" id="text-entity-Objective-bd719995-3fe8-403e-aa5a-d05f357df533-attr-2-type" class="er entityLabel">String</text><rect height="22" width="60.984375" y="46" x="53.6640625" class="er attributeBoxEven"></rect><text style="dominant-baseline: middle; font-size: 10.2px;" transform="translate(58.6640625,57)" y="0" x="0" id="text-entity-Objective-bd719995-3fe8-403e-aa5a-d05f357df533-attr-2-name" class="er entityLabel">name</text><rect height="22" width="53.6640625" y="68" x="0" class="er attributeBoxOdd"></rect><text style="dominant-baseline: middle; font-size: 10.2px;" transform="translate(5,79)" y="0" x="0" id="text-entity-Objective-bd719995-3fe8-403e-aa5a-d05f357df533-attr-3-type" class="er entityLabel">String</text><rect height="22" width="60.984375" y="68" x="53.6640625" class="er attributeBoxOdd"></rect><text style="dominant-baseline: middle; font-size: 10.2px;" transform="translate(58.6640625,79)" y="0" x="0" id="text-entity-Objective-bd719995-3fe8-403e-aa5a-d05f357df533-attr-3-name" class="er entityLabel">key</text><rect height="22" width="53.6640625" y="90" x="0" class="er attributeBoxEven"></rect><text style="dominant-baseline: middle; font-size: 10.2px;" transform="translate(5,101)" y="0" x="0" id="text-entity-Objective-bd719995-3fe8-403e-aa5a-d05f357df533-attr-4-type" class="er entityLabel">String</text><rect height="22" width="60.984375" y="90" x="53.6640625" class="er attributeBoxEven"></rect><text style="dominant-baseline: middle; font-size: 10.2px;" transform="translate(58.6640625,101)" y="0" x="0" id="text-entity-Objective-bd719995-3fe8-403e-aa5a-d05f357df533-attr-4-name" class="er entityLabel">description</text><rect height="22" width="53.6640625" y="112" x="0" class="er attributeBoxOdd"></rect><text style="dominant-baseline: middle; font-size: 10.2px;" transform="translate(5,123)" y="0" x="0" id="text-entity-Objective-bd719995-3fe8-403e-aa5a-d05f357df533-attr-5-type" class="er entityLabel">DateTime</text><rect height="22" width="60.984375" y="112" x="53.6640625" class="er attributeBoxOdd"></rect><text style="dominant-baseline: middle; font-size: 10.2px;" transform="translate(58.6640625,123)" y="0" x="0" id="text-entity-Objective-bd719995-3fe8-403e-aa5a-d05f357df533-attr-5-name" class="er entityLabel">updatedAt</text><rect height="22" width="53.6640625" y="134" x="0" class="er attributeBoxEven"></rect><text style="dominant-baseline: middle; font-size: 10.2px;" transform="translate(5,145)" y="0" x="0" id="text-entity-Objective-bd719995-3fe8-403e-aa5a-d05f357df533-attr-6-type" class="er entityLabel">DateTime</text><rect height="22" width="60.984375" y="134" x="53.6640625" class="er attributeBoxEven"></rect><text style="dominant-baseline: middle; font-size: 10.2px;" transform="translate(58.6640625,145)" y="0" x="0" id="text-entity-Objective-bd719995-3fe8-403e-aa5a-d05f357df533-attr-6-name" class="er entityLabel">createdAt</text><rect height="22" width="53.6640625" y="156" x="0" class="er attributeBoxOdd"></rect><text style="dominant-baseline: middle; font-size: 10.2px;" transform="translate(5,167)" y="0" x="0" id="text-entity-Objective-bd719995-3fe8-403e-aa5a-d05f357df533-attr-7-type" class="er entityLabel">Boolean</text><rect height="22" width="60.984375" y="156" x="53.6640625" class="er attributeBoxOdd"></rect><text style="dominant-baseline: middle; font-size: 10.2px;" transform="translate(58.6640625,167)" y="0" x="0" id="text-entity-Objective-bd719995-3fe8-403e-aa5a-d05f357df533-attr-7-name" class="er entityLabel">active</text></g><g transform="translate(344.6484375,276 )" id="entity-Evidence-5c86ff7c-8d41-46ee-882d-df9d1fb81052"><rect height="134" width="111.3125" y="0" x="0" class="er entityBox"></rect><text style="dominant-baseline: middle; text-anchor: middle; font-size: 12px;" transform="translate(55.65625,12)" y="0" x="0" id="text-entity-Evidence-5c86ff7c-8d41-46ee-882d-df9d1fb81052" class="er entityLabel">Evidence</text><rect height="22" width="53.6640625" y="24" x="0" class="er attributeBoxOdd"></rect><text style="dominant-baseline: middle; font-size: 10.2px;" transform="translate(5,35)" y="0" x="0" id="text-entity-Evidence-5c86ff7c-8d41-46ee-882d-df9d1fb81052-attr-1-type" class="er entityLabel">String</text><rect height="22" width="57.6484375" y="24" x="53.6640625" class="er attributeBoxOdd"></rect><text style="dominant-baseline: middle; font-size: 10.2px;" transform="translate(58.6640625,35)" y="0" x="0" id="text-entity-Evidence-5c86ff7c-8d41-46ee-882d-df9d1fb81052-attr-1-name" class="er entityLabel">id</text><rect height="22" width="53.6640625" y="46" x="0" class="er attributeBoxEven"></rect><text style="dominant-baseline: middle; font-size: 10.2px;" transform="translate(5,57)" y="0" x="0" id="text-entity-Evidence-5c86ff7c-8d41-46ee-882d-df9d1fb81052-attr-2-type" class="er entityLabel">String</text><rect height="22" width="57.6484375" y="46" x="53.6640625" class="er attributeBoxEven"></rect><text style="dominant-baseline: middle; font-size: 10.2px;" transform="translate(58.6640625,57)" y="0" x="0" id="text-entity-Evidence-5c86ff7c-8d41-46ee-882d-df9d1fb81052-attr-2-name" class="er entityLabel">name</text><rect height="22" width="53.6640625" y="68" x="0" class="er attributeBoxOdd"></rect><text style="dominant-baseline: middle; font-size: 10.2px;" transform="translate(5,79)" y="0" x="0" id="text-entity-Evidence-5c86ff7c-8d41-46ee-882d-df9d1fb81052-attr-3-type" class="er entityLabel">DateTime</text><rect height="22" width="57.6484375" y="68" x="53.6640625" class="er attributeBoxOdd"></rect><text style="dominant-baseline: middle; font-size: 10.2px;" transform="translate(58.6640625,79)" y="0" x="0" id="text-entity-Evidence-5c86ff7c-8d41-46ee-882d-df9d1fb81052-attr-3-name" class="er entityLabel">updatedAt</text><rect height="22" width="53.6640625" y="90" x="0" class="er attributeBoxEven"></rect><text style="dominant-baseline: middle; font-size: 10.2px;" transform="translate(5,101)" y="0" x="0" id="text-entity-Evidence-5c86ff7c-8d41-46ee-882d-df9d1fb81052-attr-4-type" class="er entityLabel">DateTime</text><rect height="22" width="57.6484375" y="90" x="53.6640625" class="er attributeBoxEven"></rect><text style="dominant-baseline: middle; font-size: 10.2px;" transform="translate(58.6640625,101)" y="0" x="0" id="text-entity-Evidence-5c86ff7c-8d41-46ee-882d-df9d1fb81052-attr-4-name" class="er entityLabel">createdAt</text><rect height="22" width="53.6640625" y="112" x="0" class="er attributeBoxOdd"></rect><text style="dominant-baseline: middle; font-size: 10.2px;" transform="translate(5,123)" y="0" x="0" id="text-entity-Evidence-5c86ff7c-8d41-46ee-882d-df9d1fb81052-attr-5-type" class="er entityLabel">Boolean</text><rect height="22" width="57.6484375" y="112" x="53.6640625" class="er attributeBoxOdd"></rect><text style="dominant-baseline: middle; font-size: 10.2px;" transform="translate(58.6640625,123)" y="0" x="0" id="text-entity-Evidence-5c86ff7c-8d41-46ee-882d-df9d1fb81052-attr-5-name" class="er entityLabel">active</text></g><g transform="translate(344.6484375,20 )" id="entity-Rating-723c999e-bc0e-4f7c-bbb5-28fa6db488e7"><rect height="134" width="111.3125" y="0" x="0" class="er entityBox"></rect><text style="dominant-baseline: middle; text-anchor: middle; font-size: 12px;" transform="translate(55.65625,12)" y="0" x="0" id="text-entity-Rating-723c999e-bc0e-4f7c-bbb5-28fa6db488e7" class="er entityLabel">Rating</text><rect height="22" width="53.6640625" y="24" x="0" class="er attributeBoxOdd"></rect><text style="dominant-baseline: middle; font-size: 10.2px;" transform="translate(5,35)" y="0" x="0" id="text-entity-Rating-723c999e-bc0e-4f7c-bbb5-28fa6db488e7-attr-1-type" class="er entityLabel">String</text><rect height="22" width="57.6484375" y="24" x="53.6640625" class="er attributeBoxOdd"></rect><text style="dominant-baseline: middle; font-size: 10.2px;" transform="translate(58.6640625,35)" y="0" x="0" id="text-entity-Rating-723c999e-bc0e-4f7c-bbb5-28fa6db488e7-attr-1-name" class="er entityLabel">id</text><rect height="22" width="53.6640625" y="46" x="0" class="er attributeBoxEven"></rect><text style="dominant-baseline: middle; font-size: 10.2px;" transform="translate(5,57)" y="0" x="0" id="text-entity-Rating-723c999e-bc0e-4f7c-bbb5-28fa6db488e7-attr-2-type" class="er entityLabel">String</text><rect height="22" width="57.6484375" y="46" x="53.6640625" class="er attributeBoxEven"></rect><text style="dominant-baseline: middle; font-size: 10.2px;" transform="translate(58.6640625,57)" y="0" x="0" id="text-entity-Rating-723c999e-bc0e-4f7c-bbb5-28fa6db488e7-attr-2-name" class="er entityLabel">name</text><rect height="22" width="53.6640625" y="68" x="0" class="er attributeBoxOdd"></rect><text style="dominant-baseline: middle; font-size: 10.2px;" transform="translate(5,79)" y="0" x="0" id="text-entity-Rating-723c999e-bc0e-4f7c-bbb5-28fa6db488e7-attr-3-type" class="er entityLabel">DateTime</text><rect height="22" width="57.6484375" y="68" x="53.6640625" class="er attributeBoxOdd"></rect><text style="dominant-baseline: middle; font-size: 10.2px;" transform="translate(58.6640625,79)" y="0" x="0" id="text-entity-Rating-723c999e-bc0e-4f7c-bbb5-28fa6db488e7-attr-3-name" class="er entityLabel">updatedAt</text><rect height="22" width="53.6640625" y="90" x="0" class="er attributeBoxEven"></rect><text style="dominant-baseline: middle; font-size: 10.2px;" transform="translate(5,101)" y="0" x="0" id="text-entity-Rating-723c999e-bc0e-4f7c-bbb5-28fa6db488e7-attr-4-type" class="er entityLabel">DateTime</text><rect height="22" width="57.6484375" y="90" x="53.6640625" class="er attributeBoxEven"></rect><text style="dominant-baseline: middle; font-size: 10.2px;" transform="translate(58.6640625,101)" y="0" x="0" id="text-entity-Rating-723c999e-bc0e-4f7c-bbb5-28fa6db488e7-attr-4-name" class="er entityLabel">createdAt</text><rect height="22" width="53.6640625" y="112" x="0" class="er attributeBoxOdd"></rect><text style="dominant-baseline: middle; font-size: 10.2px;" transform="translate(5,123)" y="0" x="0" id="text-entity-Rating-723c999e-bc0e-4f7c-bbb5-28fa6db488e7-attr-5-type" class="er entityLabel">Boolean</text><rect height="22" width="57.6484375" y="112" x="53.6640625" class="er attributeBoxOdd"></rect><text style="dominant-baseline: middle; font-size: 10.2px;" transform="translate(58.6640625,123)" y="0" x="0" id="text-entity-Rating-723c999e-bc0e-4f7c-bbb5-28fa6db488e7-attr-5-name" class="er entityLabel">active</text></g><rect height="14" width="22.625" y="709" x="227.501953125" class="er relationshipLabelBox"></rect><text style="text-anchor: middle; dominant-baseline: middle; font-size: 12px;" y="716" x="238.814453125" id="rel1" class="er relationshipLabel">user</text><rect height="14" width="35.0078125" y="499.0406494140625" x="96.9842300415039" class="er relationshipLabelBox"></rect><text style="text-anchor: middle; dominant-baseline: middle; font-size: 12px;" y="506.0406494140625" x="114.4881362915039" id="rel2" class="er relationshipLabel">course</text><rect height="14" width="35.515625" y="336.0000305175781" x="216.0572967529297" class="er relationshipLabelBox"></rect><text style="text-anchor: middle; dominant-baseline: middle; font-size: 12px;" y="343.0000305175781" x="233.8151092529297" id="rel3" class="er relationshipLabel">parent</text><rect height="14" width="35.0078125" y="491.2233581542969" x="352.18035888671875" class="er relationshipLabelBox"></rect><text style="text-anchor: middle; dominant-baseline: middle; font-size: 12px;" y="498.2233581542969" x="369.68426513671875" id="rel4" class="er relationshipLabel">course</text><rect height="14" width="48.1171875" y="208" x="376.24609375" class="er relationshipLabelBox"></rect><text style="text-anchor: middle; dominant-baseline: middle; font-size: 12px;" y="215" x="400.3046875" id="rel5" class="er relationshipLabel">evidence</text></svg>